<?xml version="1.0" encoding="utf-8"?>
<svg version="1.1" xmlns:xlink="http://www.w3.org/1999/xlink" width="12px" height="12px" viewBox="153 324  12 12" xmlns="http://www.w3.org/2000/svg">
  <path d="M 159 324  C 162.36 324  165 326.64  165 330  C 165 333.36  162.36 336  159 336  C 155.64 336  153 333.36  153 330  C 153 326.64  155.64 324  159 324  Z " fill-rule="nonzero" fill="#6d000e" stroke="none" fill-opacity="0" />
  <path d="M 159 324.5  C 162.08 324.5  164.5 326.92  164.5 330  C 164.5 333.08  162.08 335.5  159 335.5  C 155.92 335.5  153.5 333.08  153.5 330  C 153.5 326.92  155.92 324.5  159 324.5  Z " stroke-width="1" stroke="#797979" fill="none" />
  <path d="M 159 333  C 157.32 333  156 331.68  156 330  C 156 328.32  157.32 327  159 327  C 160.68 327  162 328.32  162 330  C 162 331.68  160.68 333  159 333  " fill-rule="nonzero" fill="#797979" stroke="none" />
</svg>