<?xml version="1.0" encoding="utf-8"?>
<svg version="1.1" xmlns:xlink="http://www.w3.org/1999/xlink" width="12px" height="12px" viewBox="499 187  12 12" xmlns="http://www.w3.org/2000/svg">
  <path d="M 505 187  C 508.36 187  511 189.64  511 193  C 511 196.36  508.36 199  505 199  C 501.64 199  499 196.36  499 193  C 499 189.64  501.64 187  505 187  Z " fill-rule="nonzero" fill="#ffffff" stroke="none" />
  <path d="M 505 187.5  C 508.08 187.5  510.5 189.92  510.5 193  C 510.5 196.08  508.08 198.5  505 198.5  C 501.92 198.5  499.5 196.08  499.5 193  C 499.5 189.92  501.92 187.5  505 187.5  Z " stroke-width="1" stroke="#797979" fill="none" />
  <path d="M 505 196  C 503.32 196  502 194.68  502 193  C 502 191.32  503.32 190  505 190  C 506.68 190  508 191.32  508 193  C 508 194.68  506.68 196  505 196  " fill-rule="nonzero" fill="#797979" stroke="none" />
</svg>