<?xml version="1.0" encoding="utf-8"?>
<svg version="1.1" xmlns:xlink="http://www.w3.org/1999/xlink" width="12px" height="12px" viewBox="548 187  12 12" xmlns="http://www.w3.org/2000/svg">
  <path d="M 554 187  C 557.36 187  560 189.64  560 193  C 560 196.36  557.36 199  554 199  C 550.64 199  548 196.36  548 193  C 548 189.64  550.64 187  554 187  Z " fill-rule="nonzero" fill="#ffffff" stroke="none" />
  <path d="M 554 187.5  C 557.08 187.5  559.5 189.92  559.5 193  C 559.5 196.08  557.08 198.5  554 198.5  C 550.92 198.5  548.5 196.08  548.5 193  C 548.5 189.92  550.92 187.5  554 187.5  Z " stroke-width="1" stroke="#797979" fill="none" />
  <path d="M 554 196  C 552.32 196  551 194.68  551 193  C 551 191.32  552.32 190  554 190  C 555.68 190  557 191.32  557 193  C 557 194.68  555.68 196  554 196  " fill-rule="nonzero" fill="#797979" stroke="none" />
</svg>