<?xml version="1.0" encoding="utf-8"?>
<svg version="1.1" xmlns:xlink="http://www.w3.org/1999/xlink" width="12px" height="12px" viewBox="646 272  12 12" xmlns="http://www.w3.org/2000/svg">
  <path d="M 652 272  C 655.36 272  658 274.64  658 278  C 658 281.36  655.36 284  652 284  C 648.64 284  646 281.36  646 278  C 646 274.64  648.64 272  652 272  Z " fill-rule="nonzero" fill="#ffffff" stroke="none" />
  <path d="M 652 272.5  C 655.08 272.5  657.5 274.92  657.5 278  C 657.5 281.08  655.08 283.5  652 283.5  C 648.92 283.5  646.5 281.08  646.5 278  C 646.5 274.92  648.92 272.5  652 272.5  Z " stroke-width="1" stroke="#797979" fill="none" />
  <path d="M 652 281  C 650.32 281  649 279.68  649 278  C 649 276.32  650.32 275  652 275  C 653.68 275  655 276.32  655 278  C 655 279.68  653.68 281  652 281  " fill-rule="nonzero" fill="#797979" stroke="none" />
</svg>