<?xml version="1.0" encoding="utf-8"?>
<svg version="1.1" xmlns:xlink="http://www.w3.org/1999/xlink" width="12px" height="12px" viewBox="919 352  12 12" xmlns="http://www.w3.org/2000/svg">
  <path d="M 925 352  C 928.36 352  931 354.64  931 358  C 931 361.36  928.36 364  925 364  C 921.64 364  919 361.36  919 358  C 919 354.64  921.64 352  925 352  Z " fill-rule="nonzero" fill="#ffffff" stroke="none" />
  <path d="M 925 352.5  C 928.08 352.5  930.5 354.92  930.5 358  C 930.5 361.08  928.08 363.5  925 363.5  C 921.92 363.5  919.5 361.08  919.5 358  C 919.5 354.92  921.92 352.5  925 352.5  Z " stroke-width="1" stroke="#797979" fill="none" />
  <path d="M 925 361  C 923.32 361  922 359.68  922 358  C 922 356.32  923.32 355  925 355  C 926.68 355  928 356.32  928 358  C 928 359.68  926.68 361  925 361  " fill-rule="nonzero" fill="#797979" stroke="none" />
</svg>