<?xml version="1.0" encoding="utf-8"?>
<svg version="1.1" xmlns:xlink="http://www.w3.org/1999/xlink" width="12px" height="12px" viewBox="968 352  12 12" xmlns="http://www.w3.org/2000/svg">
  <path d="M 974 352  C 977.36 352  980 354.64  980 358  C 980 361.36  977.36 364  974 364  C 970.64 364  968 361.36  968 358  C 968 354.64  970.64 352  974 352  Z " fill-rule="nonzero" fill="#ffffff" stroke="none" />
  <path d="M 974 352.5  C 977.08 352.5  979.5 354.92  979.5 358  C 979.5 361.08  977.08 363.5  974 363.5  C 970.92 363.5  968.5 361.08  968.5 358  C 968.5 354.92  970.92 352.5  974 352.5  Z " stroke-width="1" stroke="#797979" fill="none" />
  <path d="M 974 361  C 972.32 361  971 359.68  971 358  C 971 356.32  972.32 355  974 355  C 975.68 355  977 356.32  977 358  C 977 359.68  975.68 361  974 361  " fill-rule="nonzero" fill="#797979" stroke="none" />
</svg>