<?xml version="1.0" encoding="utf-8"?>
<svg version="1.1" xmlns:xlink="http://www.w3.org/1999/xlink" width="12px" height="12px" viewBox="1017 354  12 12" xmlns="http://www.w3.org/2000/svg">
  <path d="M 1023 354  C 1026.36 354  1029 356.64  1029 360  C 1029 363.36  1026.36 366  1023 366  C 1019.64 366  1017 363.36  1017 360  C 1017 356.64  1019.64 354  1023 354  Z " fill-rule="nonzero" fill="#ffffff" stroke="none" />
  <path d="M 1023 354.5  C 1026.08 354.5  1028.5 356.92  1028.5 360  C 1028.5 363.08  1026.08 365.5  1023 365.5  C 1019.92 365.5  1017.5 363.08  1017.5 360  C 1017.5 356.92  1019.92 354.5  1023 354.5  Z " stroke-width="1" stroke="#797979" fill="none" />
  <path d="M 1023 363  C 1021.32 363  1020 361.68  1020 360  C 1020 358.32  1021.32 357  1023 357  C 1024.68 357  1026 358.32  1026 360  C 1026 361.68  1024.68 363  1023 363  " fill-rule="nonzero" fill="#797979" stroke="none" />
</svg>