<?xml version="1.0" encoding="utf-8"?>
<svg version="1.1" xmlns:xlink="http://www.w3.org/1999/xlink" width="12px" height="12px" viewBox="1066 354  12 12" xmlns="http://www.w3.org/2000/svg">
  <path d="M 1072 354  C 1075.36 354  1078 356.64  1078 360  C 1078 363.36  1075.36 366  1072 366  C 1068.64 366  1066 363.36  1066 360  C 1066 356.64  1068.64 354  1072 354  Z " fill-rule="nonzero" fill="#ffffff" stroke="none" />
  <path d="M 1072 354.5  C 1075.08 354.5  1077.5 356.92  1077.5 360  C 1077.5 363.08  1075.08 365.5  1072 365.5  C 1068.92 365.5  1066.5 363.08  1066.5 360  C 1066.5 356.92  1068.92 354.5  1072 354.5  Z " stroke-width="1" stroke="#797979" fill="none" />
  <path d="M 1072 363  C 1070.32 363  1069 361.68  1069 360  C 1069 358.32  1070.32 357  1072 357  C 1073.68 357  1075 358.32  1075 360  C 1075 361.68  1073.68 363  1072 363  " fill-rule="nonzero" fill="#797979" stroke="none" />
</svg>