<?xml version="1.0" encoding="utf-8"?>
<svg version="1.1" xmlns:xlink="http://www.w3.org/1999/xlink" width="12px" height="12px" viewBox="107 212  12 12" xmlns="http://www.w3.org/2000/svg">
  <path d="M 113 212  C 116.36 212  119 214.64  119 218  C 119 221.36  116.36 224  113 224  C 109.64 224  107 221.36  107 218  C 107 214.64  109.64 212  113 212  Z " fill-rule="nonzero" fill="#70b603" stroke="none" />
  <path d="M 113 212.5  C 116.08 212.5  118.5 214.92  118.5 218  C 118.5 221.08  116.08 223.5  113 223.5  C 109.92 223.5  107.5 221.08  107.5 218  C 107.5 214.92  109.92 212.5  113 212.5  Z " stroke-width="1" stroke="#797979" fill="none" />
  <path d="M 113 221  C 111.32 221  110 219.68  110 218  C 110 216.32  111.32 215  113 215  C 114.68 215  116 216.32  116 218  C 116 219.68  114.68 221  113 221  " fill-rule="nonzero" fill="#797979" stroke="none" />
</svg>