<?xml version="1.0" encoding="utf-8"?>
<svg version="1.1" xmlns:xlink="http://www.w3.org/1999/xlink" width="12px" height="12px" viewBox="584 212  12 12" xmlns="http://www.w3.org/2000/svg">
  <path d="M 590 212  C 593.36 212  596 214.64  596 218  C 596 221.36  593.36 224  590 224  C 586.64 224  584 221.36  584 218  C 584 214.64  586.64 212  590 212  Z " fill-rule="nonzero" fill="#ffff00" stroke="none" />
  <path d="M 590 212.5  C 593.08 212.5  595.5 214.92  595.5 218  C 595.5 221.08  593.08 223.5  590 223.5  C 586.92 223.5  584.5 221.08  584.5 218  C 584.5 214.92  586.92 212.5  590 212.5  Z " stroke-width="1" stroke="#797979" fill="none" />
  <path d="M 590 221  C 588.32 221  587 219.68  587 218  C 587 216.32  588.32 215  590 215  C 591.68 215  593 216.32  593 218  C 593 219.68  591.68 221  590 221  " fill-rule="nonzero" fill="#797979" stroke="none" />
</svg>