<?xml version="1.0" encoding="utf-8"?>
<svg version="1.1" xmlns:xlink="http://www.w3.org/1999/xlink" width="12px" height="12px" viewBox="682 214  12 12" xmlns="http://www.w3.org/2000/svg">
  <path d="M 688 214  C 691.36 214  694 216.64  694 220  C 694 223.36  691.36 226  688 226  C 684.64 226  682 223.36  682 220  C 682 216.64  684.64 214  688 214  Z " fill-rule="nonzero" fill="#d9001b" stroke="none" />
  <path d="M 688 214.5  C 691.08 214.5  693.5 216.92  693.5 220  C 693.5 223.08  691.08 225.5  688 225.5  C 684.92 225.5  682.5 223.08  682.5 220  C 682.5 216.92  684.92 214.5  688 214.5  Z " stroke-width="1" stroke="#797979" fill="none" />
  <path d="M 688 223  C 686.32 223  685 221.68  685 220  C 685 218.32  686.32 217  688 217  C 689.68 217  691 218.32  691 220  C 691 221.68  689.68 223  688 223  " fill-rule="nonzero" fill="#797979" stroke="none" />
</svg>