<?xml version="1.0" encoding="utf-8"?>
<svg version="1.1" xmlns:xlink="http://www.w3.org/1999/xlink" width="12px" height="12px" viewBox="731 214  12 12" xmlns="http://www.w3.org/2000/svg">
  <path d="M 737 214  C 740.36 214  743 216.64  743 220  C 743 223.36  740.36 226  737 226  C 733.64 226  731 223.36  731 220  C 731 216.64  733.64 214  737 214  Z " fill-rule="nonzero" fill="#a30014" stroke="none" />
  <path d="M 737 214.5  C 740.08 214.5  742.5 216.92  742.5 220  C 742.5 223.08  740.08 225.5  737 225.5  C 733.92 225.5  731.5 223.08  731.5 220  C 731.5 216.92  733.92 214.5  737 214.5  Z " stroke-width="1" stroke="#797979" fill="none" />
  <path d="M 737 223  C 735.32 223  734 221.68  734 220  C 734 218.32  735.32 217  737 217  C 738.68 217  740 218.32  740 220  C 740 221.68  738.68 223  737 223  " fill-rule="nonzero" fill="#797979" stroke="none" />
</svg>