<?xml version="1.0" encoding="utf-8"?>
<svg version="1.1" xmlns:xlink="http://www.w3.org/1999/xlink" width="12px" height="12px" viewBox="682 249  12 12" xmlns="http://www.w3.org/2000/svg">
  <path d="M 688 249  C 691.36 249  694 251.64  694 255  C 694 258.36  691.36 261  688 261  C 684.64 261  682 258.36  682 255  C 682 251.64  684.64 249  688 249  Z " fill-rule="nonzero" fill="#70b603" stroke="none" fill-opacity="0" />
  <path d="M 688 249.5  C 691.08 249.5  693.5 251.92  693.5 255  C 693.5 258.08  691.08 260.5  688 260.5  C 684.92 260.5  682.5 258.08  682.5 255  C 682.5 251.92  684.92 249.5  688 249.5  Z " stroke-width="1" stroke="#797979" fill="none" />
  <path d="M 688 258  C 686.32 258  685 256.68  685 255  C 685 253.32  686.32 252  688 252  C 689.68 252  691 253.32  691 255  C 691 256.68  689.68 258  688 258  " fill-rule="nonzero" fill="#797979" stroke="none" />
</svg>