<?xml version="1.0" encoding="utf-8"?>
<svg version="1.1" xmlns:xlink="http://www.w3.org/1999/xlink" width="12px" height="12px" viewBox="530 825  12 12" xmlns="http://www.w3.org/2000/svg">
  <path d="M 536 825  C 539.36 825  542 827.64  542 831  C 542 834.36  539.36 837  536 837  C 532.64 837  530 834.36  530 831  C 530 827.64  532.64 825  536 825  Z " fill-rule="nonzero" fill="#ffffff" stroke="none" />
  <path d="M 536 825.5  C 539.08 825.5  541.5 827.92  541.5 831  C 541.5 834.08  539.08 836.5  536 836.5  C 532.92 836.5  530.5 834.08  530.5 831  C 530.5 827.92  532.92 825.5  536 825.5  Z " stroke-width="1" stroke="#797979" fill="none" />
  <path d="M 536 834  C 534.32 834  533 832.68  533 831  C 533 829.32  534.32 828  536 828  C 537.68 828  539 829.32  539 831  C 539 832.68  537.68 834  536 834  " fill-rule="nonzero" fill="#797979" stroke="none" />
</svg>