<?xml version="1.0" encoding="utf-8"?>
<svg version="1.1" xmlns:xlink="http://www.w3.org/1999/xlink" width="12px" height="12px" viewBox="579 825  12 12" xmlns="http://www.w3.org/2000/svg">
  <path d="M 585 825  C 588.36 825  591 827.64  591 831  C 591 834.36  588.36 837  585 837  C 581.64 837  579 834.36  579 831  C 579 827.64  581.64 825  585 825  Z " fill-rule="nonzero" fill="#ffffff" stroke="none" />
  <path d="M 585 825.5  C 588.08 825.5  590.5 827.92  590.5 831  C 590.5 834.08  588.08 836.5  585 836.5  C 581.92 836.5  579.5 834.08  579.5 831  C 579.5 827.92  581.92 825.5  585 825.5  Z " stroke-width="1" stroke="#797979" fill="none" />
  <path d="M 585 834  C 583.32 834  582 832.68  582 831  C 582 829.32  583.32 828  585 828  C 586.68 828  588 829.32  588 831  C 588 832.68  586.68 834  585 834  " fill-rule="nonzero" fill="#797979" stroke="none" />
</svg>