<?xml version="1.0" encoding="utf-8"?>
<svg version="1.1" xmlns:xlink="http://www.w3.org/1999/xlink" width="12px" height="12px" viewBox="530 1003  12 12" xmlns="http://www.w3.org/2000/svg">
  <path d="M 536 1003  C 539.36 1003  542 1005.64  542 1009  C 542 1012.36  539.36 1015  536 1015  C 532.64 1015  530 1012.36  530 1009  C 530 1005.64  532.64 1003  536 1003  Z " fill-rule="nonzero" fill="#ffffff" stroke="none" />
  <path d="M 536 1003.5  C 539.08 1003.5  541.5 1005.92  541.5 1009  C 541.5 1012.08  539.08 1014.5  536 1014.5  C 532.92 1014.5  530.5 1012.08  530.5 1009  C 530.5 1005.92  532.92 1003.5  536 1003.5  Z " stroke-width="1" stroke="#797979" fill="none" />
  <path d="M 536 1012  C 534.32 1012  533 1010.68  533 1009  C 533 1007.32  534.32 1006  536 1006  C 537.68 1006  539 1007.32  539 1009  C 539 1010.68  537.68 1012  536 1012  " fill-rule="nonzero" fill="#797979" stroke="none" />
</svg>