<?xml version="1.0" encoding="utf-8"?>
<svg version="1.1" xmlns:xlink="http://www.w3.org/1999/xlink" width="12px" height="12px" viewBox="579 1003  12 12" xmlns="http://www.w3.org/2000/svg">
  <path d="M 585 1003  C 588.36 1003  591 1005.64  591 1009  C 591 1012.36  588.36 1015  585 1015  C 581.64 1015  579 1012.36  579 1009  C 579 1005.64  581.64 1003  585 1003  Z " fill-rule="nonzero" fill="#ffffff" stroke="none" />
  <path d="M 585 1003.5  C 588.08 1003.5  590.5 1005.92  590.5 1009  C 590.5 1012.08  588.08 1014.5  585 1014.5  C 581.92 1014.5  579.5 1012.08  579.5 1009  C 579.5 1005.92  581.92 1003.5  585 1003.5  Z " stroke-width="1" stroke="#797979" fill="none" />
  <path d="M 585 1012  C 583.32 1012  582 1010.68  582 1009  C 582 1007.32  583.32 1006  585 1006  C 586.68 1006  588 1007.32  588 1009  C 588 1010.68  586.68 1012  585 1012  " fill-rule="nonzero" fill="#797979" stroke="none" />
</svg>