<?xml version="1.0" encoding="utf-8"?>
<svg version="1.1" xmlns:xlink="http://www.w3.org/1999/xlink" width="12px" height="12px" viewBox="628 1005  12 12" xmlns="http://www.w3.org/2000/svg">
  <path d="M 634 1005  C 637.36 1005  640 1007.64  640 1011  C 640 1014.36  637.36 1017  634 1017  C 630.64 1017  628 1014.36  628 1011  C 628 1007.64  630.64 1005  634 1005  Z " fill-rule="nonzero" fill="#ffffff" stroke="none" />
  <path d="M 634 1005.5  C 637.08 1005.5  639.5 1007.92  639.5 1011  C 639.5 1014.08  637.08 1016.5  634 1016.5  C 630.92 1016.5  628.5 1014.08  628.5 1011  C 628.5 1007.92  630.92 1005.5  634 1005.5  Z " stroke-width="1" stroke="#797979" fill="none" />
  <path d="M 634 1014  C 632.32 1014  631 1012.68  631 1011  C 631 1009.32  632.32 1008  634 1008  C 635.68 1008  637 1009.32  637 1011  C 637 1012.68  635.68 1014  634 1014  " fill-rule="nonzero" fill="#797979" stroke="none" />
</svg>