<?xml version="1.0" encoding="utf-8"?>
<svg version="1.1" xmlns:xlink="http://www.w3.org/1999/xlink" width="12px" height="12px" viewBox="677 1005  12 12" xmlns="http://www.w3.org/2000/svg">
  <path d="M 683 1005  C 686.36 1005  689 1007.64  689 1011  C 689 1014.36  686.36 1017  683 1017  C 679.64 1017  677 1014.36  677 1011  C 677 1007.64  679.64 1005  683 1005  Z " fill-rule="nonzero" fill="#ffffff" stroke="none" />
  <path d="M 683 1005.5  C 686.08 1005.5  688.5 1007.92  688.5 1011  C 688.5 1014.08  686.08 1016.5  683 1016.5  C 679.92 1016.5  677.5 1014.08  677.5 1011  C 677.5 1007.92  679.92 1005.5  683 1005.5  Z " stroke-width="1" stroke="#797979" fill="none" />
  <path d="M 683 1014  C 681.32 1014  680 1012.68  680 1011  C 680 1009.32  681.32 1008  683 1008  C 684.68 1008  686 1009.32  686 1011  C 686 1012.68  684.68 1014  683 1014  " fill-rule="nonzero" fill="#797979" stroke="none" />
</svg>