<?xml version="1.0" encoding="utf-8"?>
<svg version="1.1" xmlns:xlink="http://www.w3.org/1999/xlink" width="12px" height="12px" viewBox="81 140  12 12" xmlns="http://www.w3.org/2000/svg">
  <path d="M 87 140  C 90.36 140  93 142.64  93 146  C 93 149.36  90.36 152  87 152  C 83.64 152  81 149.36  81 146  C 81 142.64  83.64 140  87 140  Z " fill-rule="nonzero" fill="#ffffff" stroke="none" />
  <path d="M 87 140.5  C 90.08 140.5  92.5 142.92  92.5 146  C 92.5 149.08  90.08 151.5  87 151.5  C 83.92 151.5  81.5 149.08  81.5 146  C 81.5 142.92  83.92 140.5  87 140.5  Z " stroke-width="1" stroke="#797979" fill="none" />
  <path d="M 87 149  C 85.32 149  84 147.68  84 146  C 84 144.32  85.32 143  87 143  C 88.68 143  90 144.32  90 146  C 90 147.68  88.68 149  87 149  " fill-rule="nonzero" fill="#797979" stroke="none" />
</svg>