<?xml version="1.0" encoding="utf-8"?>
<svg version="1.1" xmlns:xlink="http://www.w3.org/1999/xlink" width="12px" height="12px" viewBox="81 848  12 12" xmlns="http://www.w3.org/2000/svg">
  <path d="M 87 848  C 90.36 848  93 850.64  93 854  C 93 857.36  90.36 860  87 860  C 83.64 860  81 857.36  81 854  C 81 850.64  83.64 848  87 848  Z " fill-rule="nonzero" fill="#ffffff" stroke="none" />
  <path d="M 87 848.5  C 90.08 848.5  92.5 850.92  92.5 854  C 92.5 857.08  90.08 859.5  87 859.5  C 83.92 859.5  81.5 857.08  81.5 854  C 81.5 850.92  83.92 848.5  87 848.5  Z " stroke-width="1" stroke="#797979" fill="none" />
  <path d="M 87 857  C 85.32 857  84 855.68  84 854  C 84 852.32  85.32 851  87 851  C 88.68 851  90 852.32  90 854  C 90 855.68  88.68 857  87 857  " fill-rule="nonzero" fill="#797979" stroke="none" />
</svg>