<?xml version="1.0" encoding="utf-8"?>
<svg version="1.1" xmlns:xlink="http://www.w3.org/1999/xlink" width="12px" height="12px" viewBox="179 933  12 12" xmlns="http://www.w3.org/2000/svg">
  <path d="M 185 933  C 188.36 933  191 935.64  191 939  C 191 942.36  188.36 945  185 945  C 181.64 945  179 942.36  179 939  C 179 935.64  181.64 933  185 933  Z " fill-rule="nonzero" fill="#ffffff" stroke="none" />
  <path d="M 185 933.5  C 188.08 933.5  190.5 935.92  190.5 939  C 190.5 942.08  188.08 944.5  185 944.5  C 181.92 944.5  179.5 942.08  179.5 939  C 179.5 935.92  181.92 933.5  185 933.5  Z " stroke-width="1" stroke="#797979" fill="none" />
  <path d="M 185 942  C 183.32 942  182 940.68  182 939  C 182 937.32  183.32 936  185 936  C 186.68 936  188 937.32  188 939  C 188 940.68  186.68 942  185 942  " fill-rule="nonzero" fill="#797979" stroke="none" />
</svg>