<?xml version="1.0" encoding="utf-8"?>
<svg version="1.1" xmlns:xlink="http://www.w3.org/1999/xlink" width="12px" height="12px" viewBox="104 1038  12 12" xmlns="http://www.w3.org/2000/svg">
  <path d="M 110 1038  C 113.36 1038  116 1040.64  116 1044  C 116 1047.36  113.36 1050  110 1050  C 106.64 1050  104 1047.36  104 1044  C 104 1040.64  106.64 1038  110 1038  Z " fill-rule="nonzero" fill="#6d000e" stroke="none" fill-opacity="0" />
  <path d="M 110 1038.5  C 113.08 1038.5  115.5 1040.92  115.5 1044  C 115.5 1047.08  113.08 1049.5  110 1049.5  C 106.92 1049.5  104.5 1047.08  104.5 1044  C 104.5 1040.92  106.92 1038.5  110 1038.5  Z " stroke-width="1" stroke="#797979" fill="none" />
  <path d="M 110 1047  C 108.32 1047  107 1045.68  107 1044  C 107 1042.32  108.32 1041  110 1041  C 111.68 1041  113 1042.32  113 1044  C 113 1045.68  111.68 1047  110 1047  " fill-rule="nonzero" fill="#797979" stroke="none" />
</svg>