<?xml version="1.0" encoding="utf-8"?>
<svg version="1.1" xmlns:xlink="http://www.w3.org/1999/xlink" width="12px" height="12px" viewBox="153 1038  12 12" xmlns="http://www.w3.org/2000/svg">
  <path d="M 159 1038  C 162.36 1038  165 1040.64  165 1044  C 165 1047.36  162.36 1050  159 1050  C 155.64 1050  153 1047.36  153 1044  C 153 1040.64  155.64 1038  159 1038  Z " fill-rule="nonzero" fill="#6d000e" stroke="none" fill-opacity="0" />
  <path d="M 159 1038.5  C 162.08 1038.5  164.5 1040.92  164.5 1044  C 164.5 1047.08  162.08 1049.5  159 1049.5  C 155.92 1049.5  153.5 1047.08  153.5 1044  C 153.5 1040.92  155.92 1038.5  159 1038.5  Z " stroke-width="1" stroke="#797979" fill="none" />
  <path d="M 159 1047  C 157.32 1047  156 1045.68  156 1044  C 156 1042.32  157.32 1041  159 1041  C 160.68 1041  162 1042.32  162 1044  C 162 1045.68  160.68 1047  159 1047  " fill-rule="nonzero" fill="#797979" stroke="none" />
</svg>