<?xml version="1.0" encoding="utf-8"?>
<svg version="1.1" xmlns:xlink="http://www.w3.org/1999/xlink" width="12px" height="12px" viewBox="152 1072  12 12" xmlns="http://www.w3.org/2000/svg">
  <path d="M 158 1072  C 161.36 1072  164 1074.64  164 1078  C 164 1081.36  161.36 1084  158 1084  C 154.64 1084  152 1081.36  152 1078  C 152 1074.64  154.64 1072  158 1072  Z " fill-rule="nonzero" fill="#70b603" stroke="none" fill-opacity="0" />
  <path d="M 158 1072.5  C 161.08 1072.5  163.5 1074.92  163.5 1078  C 163.5 1081.08  161.08 1083.5  158 1083.5  C 154.92 1083.5  152.5 1081.08  152.5 1078  C 152.5 1074.92  154.92 1072.5  158 1072.5  Z " stroke-width="1" stroke="#797979" fill="none" />
  <path d="M 158 1081  C 156.32 1081  155 1079.68  155 1078  C 155 1076.32  156.32 1075  158 1075  C 159.68 1075  161 1076.32  161 1078  C 161 1079.68  159.68 1081  158 1081  " fill-rule="nonzero" fill="#797979" stroke="none" />
</svg>