<?xml version="1.0" encoding="utf-8"?>
<svg version="1.1" xmlns:xlink="http://www.w3.org/1999/xlink" width="12px" height="12px" viewBox="201 1072  12 12" xmlns="http://www.w3.org/2000/svg">
  <path d="M 207 1072  C 210.36 1072  213 1074.64  213 1078  C 213 1081.36  210.36 1084  207 1084  C 203.64 1084  201 1081.36  201 1078  C 201 1074.64  203.64 1072  207 1072  Z " fill-rule="nonzero" fill="#70b603" stroke="none" fill-opacity="0" />
  <path d="M 207 1072.5  C 210.08 1072.5  212.5 1074.92  212.5 1078  C 212.5 1081.08  210.08 1083.5  207 1083.5  C 203.92 1083.5  201.5 1081.08  201.5 1078  C 201.5 1074.92  203.92 1072.5  207 1072.5  Z " stroke-width="1" stroke="#797979" fill="none" />
  <path d="M 207 1081  C 205.32 1081  204 1079.68  204 1078  C 204 1076.32  205.32 1075  207 1075  C 208.68 1075  210 1076.32  210 1078  C 210 1079.68  208.68 1081  207 1081  " fill-rule="nonzero" fill="#797979" stroke="none" />
</svg>