<?xml version="1.0" encoding="utf-8"?>
<svg version="1.1" xmlns:xlink="http://www.w3.org/1999/xlink" width="12px" height="12px" viewBox="131 1596  12 12" xmlns="http://www.w3.org/2000/svg">
  <path d="M 137 1596  C 140.36 1596  143 1598.64  143 1602  C 143 1605.36  140.36 1608  137 1608  C 133.64 1608  131 1605.36  131 1602  C 131 1598.64  133.64 1596  137 1596  Z " fill-rule="nonzero" fill="#ffffff" stroke="none" />
  <path d="M 137 1596.5  C 140.08 1596.5  142.5 1598.92  142.5 1602  C 142.5 1605.08  140.08 1607.5  137 1607.5  C 133.92 1607.5  131.5 1605.08  131.5 1602  C 131.5 1598.92  133.92 1596.5  137 1596.5  Z " stroke-width="1" stroke="#797979" fill="none" />
  <path d="M 137 1605  C 135.32 1605  134 1603.68  134 1602  C 134 1600.32  135.32 1599  137 1599  C 138.68 1599  140 1600.32  140 1602  C 140 1603.68  138.68 1605  137 1605  " fill-rule="nonzero" fill="#797979" stroke="none" />
</svg>