<?xml version="1.0" encoding="utf-8"?>
<svg version="1.1" xmlns:xlink="http://www.w3.org/1999/xlink" width="12px" height="12px" viewBox="131 1679  12 12" xmlns="http://www.w3.org/2000/svg">
  <path d="M 137 1679  C 140.36 1679  143 1681.64  143 1685  C 143 1688.36  140.36 1691  137 1691  C 133.64 1691  131 1688.36  131 1685  C 131 1681.64  133.64 1679  137 1679  Z " fill-rule="nonzero" fill="#ffffff" stroke="none" />
  <path d="M 137 1679.5  C 140.08 1679.5  142.5 1681.92  142.5 1685  C 142.5 1688.08  140.08 1690.5  137 1690.5  C 133.92 1690.5  131.5 1688.08  131.5 1685  C 131.5 1681.92  133.92 1679.5  137 1679.5  Z " stroke-width="1" stroke="#797979" fill="none" />
  <path d="M 137 1688  C 135.32 1688  134 1686.68  134 1685  C 134 1683.32  135.32 1682  137 1682  C 138.68 1682  140 1683.32  140 1685  C 140 1686.68  138.68 1688  137 1688  " fill-rule="nonzero" fill="#797979" stroke="none" />
</svg>