<?xml version="1.0" encoding="utf-8"?>
<svg version="1.1" xmlns:xlink="http://www.w3.org/1999/xlink" width="12px" height="12px" viewBox="180 1679  12 12" xmlns="http://www.w3.org/2000/svg">
  <path d="M 186 1679  C 189.36 1679  192 1681.64  192 1685  C 192 1688.36  189.36 1691  186 1691  C 182.64 1691  180 1688.36  180 1685  C 180 1681.64  182.64 1679  186 1679  Z " fill-rule="nonzero" fill="#ffffff" stroke="none" />
  <path d="M 186 1679.5  C 189.08 1679.5  191.5 1681.92  191.5 1685  C 191.5 1688.08  189.08 1690.5  186 1690.5  C 182.92 1690.5  180.5 1688.08  180.5 1685  C 180.5 1681.92  182.92 1679.5  186 1679.5  Z " stroke-width="1" stroke="#797979" fill="none" />
  <path d="M 186 1688  C 184.32 1688  183 1686.68  183 1685  C 183 1683.32  184.32 1682  186 1682  C 187.68 1682  189 1683.32  189 1685  C 189 1686.68  187.68 1688  186 1688  " fill-rule="nonzero" fill="#797979" stroke="none" />
</svg>