<?xml version="1.0" encoding="utf-8"?>
<svg version="1.1" xmlns:xlink="http://www.w3.org/1999/xlink" width="12px" height="12px" viewBox="278 1681  12 12" xmlns="http://www.w3.org/2000/svg">
  <path d="M 284 1681  C 287.36 1681  290 1683.64  290 1687  C 290 1690.36  287.36 1693  284 1693  C 280.64 1693  278 1690.36  278 1687  C 278 1683.64  280.64 1681  284 1681  Z " fill-rule="nonzero" fill="#ffffff" stroke="none" />
  <path d="M 284 1681.5  C 287.08 1681.5  289.5 1683.92  289.5 1687  C 289.5 1690.08  287.08 1692.5  284 1692.5  C 280.92 1692.5  278.5 1690.08  278.5 1687  C 278.5 1683.92  280.92 1681.5  284 1681.5  Z " stroke-width="1" stroke="#797979" fill="none" />
  <path d="M 284 1690  C 282.32 1690  281 1688.68  281 1687  C 281 1685.32  282.32 1684  284 1684  C 285.68 1684  287 1685.32  287 1687  C 287 1688.68  285.68 1690  284 1690  " fill-rule="nonzero" fill="#797979" stroke="none" />
</svg>