<?xml version="1.0" encoding="utf-8"?>
<svg version="1.1" xmlns:xlink="http://www.w3.org/1999/xlink" width="12px" height="12px" viewBox="580 1573  12 12" xmlns="http://www.w3.org/2000/svg">
  <path d="M 586 1573  C 589.36 1573  592 1575.64  592 1579  C 592 1582.36  589.36 1585  586 1585  C 582.64 1585  580 1582.36  580 1579  C 580 1575.64  582.64 1573  586 1573  Z " fill-rule="nonzero" fill="#ffffff" stroke="none" />
  <path d="M 586 1573.5  C 589.08 1573.5  591.5 1575.92  591.5 1579  C 591.5 1582.08  589.08 1584.5  586 1584.5  C 582.92 1584.5  580.5 1582.08  580.5 1579  C 580.5 1575.92  582.92 1573.5  586 1573.5  Z " stroke-width="1" stroke="#797979" fill="none" />
  <path d="M 586 1582  C 584.32 1582  583 1580.68  583 1579  C 583 1577.32  584.32 1576  586 1576  C 587.68 1576  589 1577.32  589 1579  C 589 1580.68  587.68 1582  586 1582  " fill-rule="nonzero" fill="#797979" stroke="none" />
</svg>