<?xml version="1.0" encoding="utf-8"?>
<svg version="1.1" xmlns:xlink="http://www.w3.org/1999/xlink" width="12px" height="12px" viewBox="629 1573  12 12" xmlns="http://www.w3.org/2000/svg">
  <path d="M 635 1573  C 638.36 1573  641 1575.64  641 1579  C 641 1582.36  638.36 1585  635 1585  C 631.64 1585  629 1582.36  629 1579  C 629 1575.64  631.64 1573  635 1573  Z " fill-rule="nonzero" fill="#ffffff" stroke="none" />
  <path d="M 635 1573.5  C 638.08 1573.5  640.5 1575.92  640.5 1579  C 640.5 1582.08  638.08 1584.5  635 1584.5  C 631.92 1584.5  629.5 1582.08  629.5 1579  C 629.5 1575.92  631.92 1573.5  635 1573.5  Z " stroke-width="1" stroke="#797979" fill="none" />
  <path d="M 635 1582  C 633.32 1582  632 1580.68  632 1579  C 632 1577.32  633.32 1576  635 1576  C 636.68 1576  638 1577.32  638 1579  C 638 1580.68  636.68 1582  635 1582  " fill-rule="nonzero" fill="#797979" stroke="none" />
</svg>