<?xml version="1.0" encoding="utf-8"?>
<svg version="1.1" xmlns:xlink="http://www.w3.org/1999/xlink" width="12px" height="12px" viewBox="629 1751  12 12" xmlns="http://www.w3.org/2000/svg">
  <path d="M 635 1751  C 638.36 1751  641 1753.64  641 1757  C 641 1760.36  638.36 1763  635 1763  C 631.64 1763  629 1760.36  629 1757  C 629 1753.64  631.64 1751  635 1751  Z " fill-rule="nonzero" fill="#ffffff" stroke="none" />
  <path d="M 635 1751.5  C 638.08 1751.5  640.5 1753.92  640.5 1757  C 640.5 1760.08  638.08 1762.5  635 1762.5  C 631.92 1762.5  629.5 1760.08  629.5 1757  C 629.5 1753.92  631.92 1751.5  635 1751.5  Z " stroke-width="1" stroke="#797979" fill="none" />
  <path d="M 635 1760  C 633.32 1760  632 1758.68  632 1757  C 632 1755.32  633.32 1754  635 1754  C 636.68 1754  638 1755.32  638 1757  C 638 1758.68  636.68 1760  635 1760  " fill-rule="nonzero" fill="#797979" stroke="none" />
</svg>