<?xml version="1.0" encoding="utf-8"?>
<svg version="1.1" xmlns:xlink="http://www.w3.org/1999/xlink" width="12px" height="12px" viewBox="678 1753  12 12" xmlns="http://www.w3.org/2000/svg">
  <path d="M 684 1753  C 687.36 1753  690 1755.64  690 1759  C 690 1762.36  687.36 1765  684 1765  C 680.64 1765  678 1762.36  678 1759  C 678 1755.64  680.64 1753  684 1753  Z " fill-rule="nonzero" fill="#ffffff" stroke="none" />
  <path d="M 684 1753.5  C 687.08 1753.5  689.5 1755.92  689.5 1759  C 689.5 1762.08  687.08 1764.5  684 1764.5  C 680.92 1764.5  678.5 1762.08  678.5 1759  C 678.5 1755.92  680.92 1753.5  684 1753.5  Z " stroke-width="1" stroke="#797979" fill="none" />
  <path d="M 684 1762  C 682.32 1762  681 1760.68  681 1759  C 681 1757.32  682.32 1756  684 1756  C 685.68 1756  687 1757.32  687 1759  C 687 1760.68  685.68 1762  684 1762  " fill-rule="nonzero" fill="#797979" stroke="none" />
</svg>