<?xml version="1.0" encoding="utf-8"?>
<svg version="1.1" xmlns:xlink="http://www.w3.org/1999/xlink" width="12px" height="12px" viewBox="727 1753  12 12" xmlns="http://www.w3.org/2000/svg">
  <path d="M 733 1753  C 736.36 1753  739 1755.64  739 1759  C 739 1762.36  736.36 1765  733 1765  C 729.64 1765  727 1762.36  727 1759  C 727 1755.64  729.64 1753  733 1753  Z " fill-rule="nonzero" fill="#ffffff" stroke="none" />
  <path d="M 733 1753.5  C 736.08 1753.5  738.5 1755.92  738.5 1759  C 738.5 1762.08  736.08 1764.5  733 1764.5  C 729.92 1764.5  727.5 1762.08  727.5 1759  C 727.5 1755.92  729.92 1753.5  733 1753.5  Z " stroke-width="1" stroke="#797979" fill="none" />
  <path d="M 733 1762  C 731.32 1762  730 1760.68  730 1759  C 730 1757.32  731.32 1756  733 1756  C 734.68 1756  736 1757.32  736 1759  C 736 1760.68  734.68 1762  733 1762  " fill-rule="nonzero" fill="#797979" stroke="none" />
</svg>