<?xml version="1.0" encoding="utf-8"?>
<svg version="1.1" xmlns:xlink="http://www.w3.org/1999/xlink" width="12px" height="12px" viewBox="776 1753  12 12" xmlns="http://www.w3.org/2000/svg">
  <path d="M 782 1753  C 785.36 1753  788 1755.64  788 1759  C 788 1762.36  785.36 1765  782 1765  C 778.64 1765  776 1762.36  776 1759  C 776 1755.64  778.64 1753  782 1753  Z " fill-rule="nonzero" fill="#ffffff" stroke="none" />
  <path d="M 782 1753.5  C 785.08 1753.5  787.5 1755.92  787.5 1759  C 787.5 1762.08  785.08 1764.5  782 1764.5  C 778.92 1764.5  776.5 1762.08  776.5 1759  C 776.5 1755.92  778.92 1753.5  782 1753.5  Z " stroke-width="1" stroke="#797979" fill="none" />
  <path d="M 782 1762  C 780.32 1762  779 1760.68  779 1759  C 779 1757.32  780.32 1756  782 1756  C 783.68 1756  785 1757.32  785 1759  C 785 1760.68  783.68 1762  782 1762  " fill-rule="nonzero" fill="#797979" stroke="none" />
</svg>