<?xml version="1.0" encoding="utf-8"?>
<svg version="1.1" xmlns:xlink="http://www.w3.org/1999/xlink" width="12px" height="12px" viewBox="131 2160  12 12" xmlns="http://www.w3.org/2000/svg">
  <path d="M 137 2160  C 140.36 2160  143 2162.64  143 2166  C 143 2169.36  140.36 2172  137 2172  C 133.64 2172  131 2169.36  131 2166  C 131 2162.64  133.64 2160  137 2160  Z " fill-rule="nonzero" fill="#ffffff" stroke="none" />
  <path d="M 137 2160.5  C 140.08 2160.5  142.5 2162.92  142.5 2166  C 142.5 2169.08  140.08 2171.5  137 2171.5  C 133.92 2171.5  131.5 2169.08  131.5 2166  C 131.5 2162.92  133.92 2160.5  137 2160.5  Z " stroke-width="1" stroke="#797979" fill="none" />
  <path d="M 137 2169  C 135.32 2169  134 2167.68  134 2166  C 134 2164.32  135.32 2163  137 2163  C 138.68 2163  140 2164.32  140 2166  C 140 2167.68  138.68 2169  137 2169  " fill-rule="nonzero" fill="#797979" stroke="none" />
</svg>