<?xml version="1.0" encoding="utf-8"?>
<svg version="1.1" xmlns:xlink="http://www.w3.org/1999/xlink" width="12px" height="12px" viewBox="180 2160  12 12" xmlns="http://www.w3.org/2000/svg">
  <path d="M 186 2160  C 189.36 2160  192 2162.64  192 2166  C 192 2169.36  189.36 2172  186 2172  C 182.64 2172  180 2169.36  180 2166  C 180 2162.64  182.64 2160  186 2160  Z " fill-rule="nonzero" fill="#ffffff" stroke="none" />
  <path d="M 186 2160.5  C 189.08 2160.5  191.5 2162.92  191.5 2166  C 191.5 2169.08  189.08 2171.5  186 2171.5  C 182.92 2171.5  180.5 2169.08  180.5 2166  C 180.5 2162.92  182.92 2160.5  186 2160.5  Z " stroke-width="1" stroke="#797979" fill="none" />
  <path d="M 186 2169  C 184.32 2169  183 2167.68  183 2166  C 183 2164.32  184.32 2163  186 2163  C 187.68 2163  189 2164.32  189 2166  C 189 2167.68  187.68 2169  186 2169  " fill-rule="nonzero" fill="#797979" stroke="none" />
</svg>