<?xml version="1.0" encoding="utf-8"?>
<svg version="1.1" xmlns:xlink="http://www.w3.org/1999/xlink" width="12px" height="12px" viewBox="131 2243  12 12" xmlns="http://www.w3.org/2000/svg">
  <path d="M 137 2243  C 140.36 2243  143 2245.64  143 2249  C 143 2252.36  140.36 2255  137 2255  C 133.64 2255  131 2252.36  131 2249  C 131 2245.64  133.64 2243  137 2243  Z " fill-rule="nonzero" fill="#ffffff" stroke="none" />
  <path d="M 137 2243.5  C 140.08 2243.5  142.5 2245.92  142.5 2249  C 142.5 2252.08  140.08 2254.5  137 2254.5  C 133.92 2254.5  131.5 2252.08  131.5 2249  C 131.5 2245.92  133.92 2243.5  137 2243.5  Z " stroke-width="1" stroke="#797979" fill="none" />
  <path d="M 137 2252  C 135.32 2252  134 2250.68  134 2249  C 134 2247.32  135.32 2246  137 2246  C 138.68 2246  140 2247.32  140 2249  C 140 2250.68  138.68 2252  137 2252  " fill-rule="nonzero" fill="#797979" stroke="none" />
</svg>