<?xml version="1.0" encoding="utf-8"?>
<svg version="1.1" xmlns:xlink="http://www.w3.org/1999/xlink" width="12px" height="12px" viewBox="180 2243  12 12" xmlns="http://www.w3.org/2000/svg">
  <path d="M 186 2243  C 189.36 2243  192 2245.64  192 2249  C 192 2252.36  189.36 2255  186 2255  C 182.64 2255  180 2252.36  180 2249  C 180 2245.64  182.64 2243  186 2243  Z " fill-rule="nonzero" fill="#ffffff" stroke="none" />
  <path d="M 186 2243.5  C 189.08 2243.5  191.5 2245.92  191.5 2249  C 191.5 2252.08  189.08 2254.5  186 2254.5  C 182.92 2254.5  180.5 2252.08  180.5 2249  C 180.5 2245.92  182.92 2243.5  186 2243.5  Z " stroke-width="1" stroke="#797979" fill="none" />
  <path d="M 186 2252  C 184.32 2252  183 2250.68  183 2249  C 183 2247.32  184.32 2246  186 2246  C 187.68 2246  189 2247.32  189 2249  C 189 2250.68  187.68 2252  186 2252  " fill-rule="nonzero" fill="#797979" stroke="none" />
</svg>