<?xml version="1.0" encoding="utf-8"?>
<svg version="1.1" xmlns:xlink="http://www.w3.org/1999/xlink" width="12px" height="12px" viewBox="229 2245  12 12" xmlns="http://www.w3.org/2000/svg">
  <path d="M 235 2245  C 238.36 2245  241 2247.64  241 2251  C 241 2254.36  238.36 2257  235 2257  C 231.64 2257  229 2254.36  229 2251  C 229 2247.64  231.64 2245  235 2245  Z " fill-rule="nonzero" fill="#ffffff" stroke="none" />
  <path d="M 235 2245.5  C 238.08 2245.5  240.5 2247.92  240.5 2251  C 240.5 2254.08  238.08 2256.5  235 2256.5  C 231.92 2256.5  229.5 2254.08  229.5 2251  C 229.5 2247.92  231.92 2245.5  235 2245.5  Z " stroke-width="1" stroke="#797979" fill="none" />
  <path d="M 235 2254  C 233.32 2254  232 2252.68  232 2251  C 232 2249.32  233.32 2248  235 2248  C 236.68 2248  238 2249.32  238 2251  C 238 2252.68  236.68 2254  235 2254  " fill-rule="nonzero" fill="#797979" stroke="none" />
</svg>