<?xml version="1.0" encoding="utf-8"?>
<svg version="1.1" xmlns:xlink="http://www.w3.org/1999/xlink" width="12px" height="12px" viewBox="327 2245  12 12" xmlns="http://www.w3.org/2000/svg">
  <path d="M 333 2245  C 336.36 2245  339 2247.64  339 2251  C 339 2254.36  336.36 2257  333 2257  C 329.64 2257  327 2254.36  327 2251  C 327 2247.64  329.64 2245  333 2245  Z " fill-rule="nonzero" fill="#ffffff" stroke="none" />
  <path d="M 333 2245.5  C 336.08 2245.5  338.5 2247.92  338.5 2251  C 338.5 2254.08  336.08 2256.5  333 2256.5  C 329.92 2256.5  327.5 2254.08  327.5 2251  C 327.5 2247.92  329.92 2245.5  333 2245.5  Z " stroke-width="1" stroke="#797979" fill="none" />
  <path d="M 333 2254  C 331.32 2254  330 2252.68  330 2251  C 330 2249.32  331.32 2248  333 2248  C 334.68 2248  336 2249.32  336 2251  C 336 2252.68  334.68 2254  333 2254  " fill-rule="nonzero" fill="#797979" stroke="none" />
</svg>