<?xml version="1.0" encoding="utf-8"?>
<svg version="1.1" xmlns:xlink="http://www.w3.org/1999/xlink" width="12px" height="12px" viewBox="551 2147  12 12" xmlns="http://www.w3.org/2000/svg">
  <path d="M 557 2147  C 560.36 2147  563 2149.64  563 2153  C 563 2156.36  560.36 2159  557 2159  C 553.64 2159  551 2156.36  551 2153  C 551 2149.64  553.64 2147  557 2147  Z " fill-rule="nonzero" fill="#ffffff" stroke="none" />
  <path d="M 557 2147.5  C 560.08 2147.5  562.5 2149.92  562.5 2153  C 562.5 2156.08  560.08 2158.5  557 2158.5  C 553.92 2158.5  551.5 2156.08  551.5 2153  C 551.5 2149.92  553.92 2147.5  557 2147.5  Z " stroke-width="1" stroke="#797979" fill="none" />
  <path d="M 557 2156  C 555.32 2156  554 2154.68  554 2153  C 554 2151.32  555.32 2150  557 2150  C 558.68 2150  560 2151.32  560 2153  C 560 2154.68  558.68 2156  557 2156  " fill-rule="nonzero" fill="#797979" stroke="none" />
</svg>