<?xml version="1.0" encoding="utf-8"?>
<svg version="1.1" xmlns:xlink="http://www.w3.org/1999/xlink" width="12px" height="12px" viewBox="600 2147  12 12" xmlns="http://www.w3.org/2000/svg">
  <path d="M 606 2147  C 609.36 2147  612 2149.64  612 2153  C 612 2156.36  609.36 2159  606 2159  C 602.64 2159  600 2156.36  600 2153  C 600 2149.64  602.64 2147  606 2147  Z " fill-rule="nonzero" fill="#ffffff" stroke="none" />
  <path d="M 606 2147.5  C 609.08 2147.5  611.5 2149.92  611.5 2153  C 611.5 2156.08  609.08 2158.5  606 2158.5  C 602.92 2158.5  600.5 2156.08  600.5 2153  C 600.5 2149.92  602.92 2147.5  606 2147.5  Z " stroke-width="1" stroke="#797979" fill="none" />
  <path d="M 606 2156  C 604.32 2156  603 2154.68  603 2153  C 603 2151.32  604.32 2150  606 2150  C 607.68 2150  609 2151.32  609 2153  C 609 2154.68  607.68 2156  606 2156  " fill-rule="nonzero" fill="#797979" stroke="none" />
</svg>