<?xml version="1.0" encoding="utf-8"?>
<svg version="1.1" xmlns:xlink="http://www.w3.org/1999/xlink" width="12px" height="12px" viewBox="600 2325  12 12" xmlns="http://www.w3.org/2000/svg">
  <path d="M 606 2325  C 609.36 2325  612 2327.64  612 2331  C 612 2334.36  609.36 2337  606 2337  C 602.64 2337  600 2334.36  600 2331  C 600 2327.64  602.64 2325  606 2325  Z " fill-rule="nonzero" fill="#ffffff" stroke="none" />
  <path d="M 606 2325.5  C 609.08 2325.5  611.5 2327.92  611.5 2331  C 611.5 2334.08  609.08 2336.5  606 2336.5  C 602.92 2336.5  600.5 2334.08  600.5 2331  C 600.5 2327.92  602.92 2325.5  606 2325.5  Z " stroke-width="1" stroke="#797979" fill="none" />
  <path d="M 606 2334  C 604.32 2334  603 2332.68  603 2331  C 603 2329.32  604.32 2328  606 2328  C 607.68 2328  609 2329.32  609 2331  C 609 2332.68  607.68 2334  606 2334  " fill-rule="nonzero" fill="#797979" stroke="none" />
</svg>