<?xml version="1.0" encoding="utf-8"?>
<svg version="1.1" xmlns:xlink="http://www.w3.org/1999/xlink" width="12px" height="12px" viewBox="649 2327  12 12" xmlns="http://www.w3.org/2000/svg">
  <path d="M 655 2327  C 658.36 2327  661 2329.64  661 2333  C 661 2336.36  658.36 2339  655 2339  C 651.64 2339  649 2336.36  649 2333  C 649 2329.64  651.64 2327  655 2327  Z " fill-rule="nonzero" fill="#ffffff" stroke="none" />
  <path d="M 655 2327.5  C 658.08 2327.5  660.5 2329.92  660.5 2333  C 660.5 2336.08  658.08 2338.5  655 2338.5  C 651.92 2338.5  649.5 2336.08  649.5 2333  C 649.5 2329.92  651.92 2327.5  655 2327.5  Z " stroke-width="1" stroke="#797979" fill="none" />
  <path d="M 655 2336  C 653.32 2336  652 2334.68  652 2333  C 652 2331.32  653.32 2330  655 2330  C 656.68 2330  658 2331.32  658 2333  C 658 2334.68  656.68 2336  655 2336  " fill-rule="nonzero" fill="#797979" stroke="none" />
</svg>