<?xml version="1.0" encoding="utf-8"?>
<svg version="1.1" xmlns:xlink="http://www.w3.org/1999/xlink" width="12px" height="12px" viewBox="698 2327  12 12" xmlns="http://www.w3.org/2000/svg">
  <path d="M 704 2327  C 707.36 2327  710 2329.64  710 2333  C 710 2336.36  707.36 2339  704 2339  C 700.64 2339  698 2336.36  698 2333  C 698 2329.64  700.64 2327  704 2327  Z " fill-rule="nonzero" fill="#ffffff" stroke="none" />
  <path d="M 704 2327.5  C 707.08 2327.5  709.5 2329.92  709.5 2333  C 709.5 2336.08  707.08 2338.5  704 2338.5  C 700.92 2338.5  698.5 2336.08  698.5 2333  C 698.5 2329.92  700.92 2327.5  704 2327.5  Z " stroke-width="1" stroke="#797979" fill="none" />
  <path d="M 704 2336  C 702.32 2336  701 2334.68  701 2333  C 701 2331.32  702.32 2330  704 2330  C 705.68 2330  707 2331.32  707 2333  C 707 2334.68  705.68 2336  704 2336  " fill-rule="nonzero" fill="#797979" stroke="none" />
</svg>